<svg xmlns="http://www.w3.org/2000/svg" width="380" height="380" viewBox="0 0 380 380" opacity="0.13">
  <g fill="none" stroke="#B090C8" stroke-linecap="round" stroke-linejoin="round">

    <!-- CAMERA top-left -->
    <g transform="translate(18,24) rotate(-15,21,21)" stroke-width="1.5">
      <rect x="2" y="10" width="38" height="26" rx="4"/>
      <circle cx="21" cy="23" r="9"/>
      <circle cx="21" cy="23" r="5.5"/>
      <path d="M14,10 L16,3 L26,3 L28,10"/>
      <circle cx="33" cy="16" r="2.5" fill="#B090C8" stroke="none"/>
      <rect x="5" y="14" width="5" height="4" rx="1"/>
    </g>

    <!-- FILM REEL top-right -->
    <g transform="translate(298,38)" stroke-width="1.3">
      <circle cx="17" cy="17" r="16"/>
      <circle cx="17" cy="17" r="5.5"/>
      <line x1="17" y1="1" x2="17" y2="11.5"/>
      <line x1="17" y1="22.5" x2="17" y2="33"/>
      <line x1="1" y1="17" x2="11.5" y2="17"/>
      <line x1="22.5" y1="17" x2="33" y2="17"/>
      <line x1="5.5" y1="5.5" x2="12.5" y2="12.5"/>
      <line x1="21.5" y1="21.5" x2="28.5" y2="28.5"/>
      <line x1="5.5" y1="28.5" x2="12.5" y2="21.5"/>
      <line x1="21.5" y1="12.5" x2="28.5" y2="5.5"/>
    </g>

    <!-- HEARTS cluster -->
    <g transform="translate(88,82)" stroke-width="1.5">
      <path d="M12,4.5 C12,2 8.5,-0.5 5,3 C1.5,6.5 2,11 12,18 C22,11 22.5,6.5 19,3 C15.5,-0.5 12,2 12,4.5Z"/>
    </g>
    <g transform="translate(112,96)" stroke-width="1.2">
      <path d="M7,3 C7,1.5 5,-0.5 3,2 C1,4.5 1.5,8 7,11.5 C12.5,8 13,4.5 11,2 C9,-0.5 7,1.5 7,3Z"/>
    </g>
    <g transform="translate(128,88)" stroke-width="1">
      <path d="M5,2 C5,1 3.5,-0.3 2,1 C0.5,2.3 0.8,4.5 5,7 C9.2,4.5 9.5,2.3 8,1 C6.5,-0.3 5,1 5,2Z"/>
    </g>

    <!-- LARGE SPARKLE -->
    <path d="M229,108 L231,116.5 L240,119 L231,121.5 L229,130 L227,121.5 L218,119 L227,116.5Z" fill="#B090C8" stroke="none"/>

    <!-- SMALL SPARKLE CROSS 1 -->
    <g transform="translate(58,62)" stroke-width="1.2">
      <line x1="6" y1="0" x2="6" y2="12"/>
      <line x1="0" y1="6" x2="12" y2="6"/>
      <circle cx="6" cy="6" r="1.5" fill="#B090C8" stroke="none"/>
    </g>

    <!-- SMALL SPARKLE CROSS 2 -->
    <g transform="translate(168,162)" stroke-width="1">
      <line x1="5" y1="0" x2="5" y2="10"/>
      <line x1="0" y1="5" x2="10" y2="5"/>
    </g>

    <!-- SMALL SPARKLE CROSS 3 -->
    <g transform="translate(344,132)" stroke-width="1">
      <line x1="5" y1="0" x2="5" y2="10"/>
      <line x1="0" y1="5" x2="10" y2="5"/>
    </g>

    <!-- MUSIC NOTES -->
    <g transform="translate(28,228)" stroke-width="1.3">
      <line x1="14" y1="0" x2="14" y2="20"/>
      <line x1="24" y1="0" x2="24" y2="17"/>
      <line x1="14" y1="0" x2="24" y2="0"/>
      <ellipse cx="10.5" cy="21" rx="5" ry="3.5" transform="rotate(-15,10.5,21)" fill="#B090C8" stroke="none"/>
      <ellipse cx="20.5" cy="18" rx="5" ry="3.5" transform="rotate(-15,20.5,18)" fill="#B090C8" stroke="none"/>
    </g>

    <!-- POLAROID -->
    <g transform="translate(252,180) rotate(-10,22,27)" stroke-width="1.4">
      <rect x="0" y="0" width="44" height="52" rx="2"/>
      <rect x="4" y="4" width="36" height="30" rx="1"/>
      <line x1="4" y1="43" x2="40" y2="43" stroke-width="0.8"/>
      <path d="M10,31 Q20,22 32,27 Q26,18 13,20 Z" stroke-width="0.9"/>
    </g>

    <!-- SECOND CAMERA small -->
    <g transform="translate(172,268) rotate(8,16,14)" stroke-width="1.2">
      <rect x="2" y="7" width="28" height="20" rx="3"/>
      <circle cx="16" cy="17" r="6"/>
      <circle cx="16" cy="17" r="3.5"/>
      <path d="M11,7 L13,3 L19,3 L21,7"/>
      <circle cx="24" cy="11" r="1.8" fill="#B090C8" stroke="none"/>
    </g>

    <!-- FILM STRIP bottom -->
    <g transform="translate(44,326) rotate(3,68,16)" stroke-width="1.2">
      <rect x="0" y="5" width="135" height="21"/>
      <rect x="4" y="0" width="8" height="5" rx="1"/>
      <rect x="18" y="0" width="8" height="5" rx="1"/>
      <rect x="32" y="0" width="8" height="5" rx="1"/>
      <rect x="46" y="0" width="8" height="5" rx="1"/>
      <rect x="60" y="0" width="8" height="5" rx="1"/>
      <rect x="74" y="0" width="8" height="5" rx="1"/>
      <rect x="88" y="0" width="8" height="5" rx="1"/>
      <rect x="102" y="0" width="8" height="5" rx="1"/>
      <rect x="116" y="0" width="8" height="5" rx="1"/>
      <rect x="4" y="26" width="8" height="5" rx="1"/>
      <rect x="18" y="26" width="8" height="5" rx="1"/>
      <rect x="32" y="26" width="8" height="5" rx="1"/>
      <rect x="46" y="26" width="8" height="5" rx="1"/>
      <rect x="60" y="26" width="8" height="5" rx="1"/>
      <rect x="74" y="26" width="8" height="5" rx="1"/>
      <rect x="88" y="26" width="8" height="5" rx="1"/>
      <rect x="102" y="26" width="8" height="5" rx="1"/>
      <rect x="116" y="26" width="8" height="5" rx="1"/>
      <rect x="8" y="8" width="22" height="13" rx="1"/>
      <rect x="36" y="8" width="22" height="13" rx="1"/>
      <rect x="64" y="8" width="22" height="13" rx="1"/>
      <rect x="92" y="8" width="22" height="13" rx="1"/>
      <rect x="120" y="8" width="11" height="13" rx="1"/>
    </g>

    <!-- SMALL FLOWER -->
    <g transform="translate(324,298)" stroke-width="1.2">
      <circle cx="12" cy="12" r="3.5"/>
      <ellipse cx="12" cy="4" rx="3" ry="4.5"/>
      <ellipse cx="12" cy="20" rx="3" ry="4.5"/>
      <ellipse cx="4" cy="12" rx="4.5" ry="3"/>
      <ellipse cx="20" cy="12" rx="4.5" ry="3"/>
      <ellipse cx="6" cy="6" rx="3" ry="4" transform="rotate(45,6,6)"/>
      <ellipse cx="18" cy="6" rx="3" ry="4" transform="rotate(-45,18,6)"/>
      <ellipse cx="6" cy="18" rx="3" ry="4" transform="rotate(-45,6,18)"/>
      <ellipse cx="18" cy="18" rx="3" ry="4" transform="rotate(45,18,18)"/>
    </g>

    <!-- PAPER AIRPLANE -->
    <g transform="translate(288,255) rotate(18,19,14)" stroke-width="1.3">
      <path d="M0,14 L38,0 L24,28 L15,18 Z"/>
      <line x1="15" y1="18" x2="38" y2="0"/>
      <line x1="0" y1="14" x2="15" y2="18"/>
    </g>

    <!-- STAR outline -->
    <g transform="translate(152,350)" stroke-width="1.2">
      <path d="M9,0 L10.7,6 L17,6 L11.9,9.9 L13.6,16 L9,12.3 L4.4,16 L6.1,9.9 L1,6 L7.3,6 Z"/>
    </g>

    <!-- TINY STAR -->
    <g transform="translate(248,342)" stroke-width="1">
      <path d="M6,0 L7.1,4 L11,4 L8,6.6 L9.1,10.5 L6,8.2 L2.9,10.5 L4,6.6 L1,4 L4.9,4 Z"/>
    </g>

    <!-- SMALL SINGLE HEART bottom-right area -->
    <g transform="translate(354,260)" stroke-width="1.2">
      <path d="M8,3 C8,1.5 5.5,-0.5 3,2 C0.5,4.5 1,8 8,12 C15,8 15.5,4.5 13,2 C10.5,-0.5 8,1.5 8,3Z"/>
    </g>

    <!-- SMALL MUSIC NOTE isolated top-right -->
    <g transform="translate(346,78)" stroke-width="1.2">
      <line x1="8" y1="0" x2="8" y2="14"/>
      <path d="M8,0 L16,-3 L16,4 L8,7"/>
      <ellipse cx="5" cy="14.5" rx="4" ry="3" transform="rotate(-15,5,14.5)" fill="#B090C8" stroke="none"/>
    </g>

    <!-- DOTS scattered -->
    <circle cx="198" cy="30" r="2.5" fill="#B090C8" stroke="none"/>
    <circle cx="272" cy="150" r="2" fill="#B090C8" stroke="none"/>
    <circle cx="78" cy="188" r="1.8" fill="#B090C8" stroke="none"/>
    <circle cx="148" cy="228" r="1.5" fill="#B090C8" stroke="none"/>
    <circle cx="316" cy="212" r="2" fill="#B090C8" stroke="none"/>
    <circle cx="42" cy="302" r="1.5" fill="#B090C8" stroke="none"/>

  </g>
</svg>
